HIERARCHY
ROOT hip
{
  OFFSET 0 0 0
  CHANNELS 6 Xposition Yposition Zposition Zrotation Yrotation Xrotation
  JOINT abdomen
  {
    OFFSET 0 20.6881 -0.73152
    CHANNELS 3 Zrotation Xrotation Yrotation
    JOINT chest
    {
      OFFSET 0 11.7043 -0.48768
      CHANNELS 3 Zrotation Xrotation Yrotation
      JOINT neck
      {
        OFFSET 0 22.1894 -2.19456
        CHANNELS 3 Zrotation Xrotation Yrotation
        JOINT head
        {
          OFFSET -0.24384 7.07133 1.2192
          CHANNELS 3 Zrotation Xrotation Yrotation
          JOINT leftEye
          {
            OFFSET 4.14528 8.04674 8.04672
            CHANNELS 3 Zrotation Xrotation Yrotation
            End Site
            {
              OFFSET 1 0 0
            }
          }
          JOINT rightEye
          {
            OFFSET -3.6576 8.04674 8.04672
            CHANNELS 3 Zrotation Xrotation Yrotation
            End Site
            {
              OFFSET 1 0 0
            }
          }
        }
      }
      JOINT rCollar
      {
        OFFSET -2.68224 19.2634 -4.8768
        CHANNELS 3 Zrotation Xrotation Yrotation
        JOINT rShldr
        {
          OFFSET -8.77824 -1.95073 1.46304
          CHANNELS 3 Zrotation Xrotation Yrotation
          JOINT rForeArm
          {
            OFFSET -28.1742 -1.7115 0.48768
            CHANNELS 3 Zrotation Xrotation Yrotation
            JOINT rHand
            {
              OFFSET -22.5879 0.773209 7.07136
              CHANNELS 3 Zrotation Xrotation Yrotation
              JOINT rThumb1
              {
                OFFSET -1.2192 -0.487915 3.41376
                CHANNELS 3 Zrotation Xrotation Yrotation
                JOINT rThumb2
                {
                  OFFSET -3.37035 -0.52449 3.41376
                  CHANNELS 3 Zrotation Xrotation Yrotation
                  End Site
                  {
                    OFFSET -1.78271 -1.18214 1.43049
                  }
                }
              }
              JOINT rIndex1
              {
                OFFSET -7.75947 0.938293 5.60832
                CHANNELS 3 Zrotation Xrotation Yrotation
                JOINT rIndex2
                {
                  OFFSET -2.54057 -0.884171 1.56538
                  CHANNELS 3 Zrotation Xrotation Yrotation
                  End Site
                  {
                    OFFSET -1.62519 -0.234802 1.16502
                  }
                }
              }
              JOINT rMid1
              {
                OFFSET -8.24714 1.18213 3.41376
                CHANNELS 3 Zrotation Xrotation Yrotation
                JOINT rMid2
                {
                  OFFSET -3.10165 -0.590103 1.0647
                  CHANNELS 3 Zrotation Xrotation Yrotation
                  End Site
                  {
                    OFFSET -2.48547 -0.328903 0.83742
                  }
                }
              }
              JOINT rRing1
              {
                OFFSET -8.82822 0.546677 1.51678
                CHANNELS 3 Zrotation Xrotation Yrotation
                JOINT rRing2
                {
                  OFFSET -2.60934 -0.819778 -0.0198488
                  CHANNELS 3 Zrotation Xrotation Yrotation
                  End Site
                  {
                    OFFSET -2.33842 -0.294052 0.168128
                  }
                }
              }
              JOINT rPinky1
              {
                OFFSET -8.27202 -0.0477905 -0.4584
                CHANNELS 3 Zrotation Xrotation Yrotation
                JOINT rPinky2
                {
                  OFFSET -1.82734 -0.647385 -0.700984
                  CHANNELS 3 Zrotation Xrotation Yrotation
                  End Site
                  {
                    OFFSET -1.69225 -0.51767 -0.607171
                  }
                }
              }
            }
          }
        }
      }
      JOINT lCollar
      {
        OFFSET 2.68224 19.2634 -4.8768
        CHANNELS 3 Zrotation Xrotation Yrotation
        JOINT lShldr
        {
          OFFSET 8.77824 -1.95073 1.46304
          CHANNELS 3 Zrotation Xrotation Yrotation
          JOINT lForeArm
          {
            OFFSET 28.1742 -1.7115 0.48768
            CHANNELS 3 Zrotation Xrotation Yrotation
            JOINT lHand
            {
              OFFSET 22.5879 0.773209 7.07136
              CHANNELS 3 Zrotation Xrotation Yrotation
              JOINT lThumb1
              {
                OFFSET 1.2192 -0.487915 3.41376
                CHANNELS 3 Zrotation Xrotation Yrotation
                JOINT lThumb2
                {
                  OFFSET 3.37035 -0.52449 3.41376
                  CHANNELS 3 Zrotation Xrotation Yrotation
                  End Site
                  {
                    OFFSET 1.78271 -1.18214 1.43049
                  }
                }
              }
              JOINT lIndex1
              {
                OFFSET 7.75947 0.938293 5.60832
                CHANNELS 3 Zrotation Xrotation Yrotation
                JOINT lIndex2
                {
                  OFFSET 2.54057 -0.884171 1.56538
                  CHANNELS 3 Zrotation Xrotation Yrotation
                  End Site
                  {
                    OFFSET 1.62519 -0.234802 1.16502
                  }
                }
              }
              JOINT lMid1
              {
                OFFSET 8.24714 1.18213 3.41376
                CHANNELS 3 Zrotation Xrotation Yrotation
                JOINT lMid2
                {
                  OFFSET 3.10165 -0.590103 1.0647
                  CHANNELS 3 Zrotation Xrotation Yrotation
                  End Site
                  {
                    OFFSET 2.48547 -0.328903 0.83742
                  }
                }
              }
              JOINT lRing1
              {
                OFFSET 8.82822 0.546677 1.51678
                CHANNELS 3 Zrotation Xrotation Yrotation
                JOINT lRing2
                {
                  OFFSET 2.60934 -0.819778 -0.0198488
                  CHANNELS 3 Zrotation Xrotation Yrotation
                  End Site
                  {
                    OFFSET 2.33842 -0.294052 0.168128
                  }
                }
              }
              JOINT lPinky1
              {
                OFFSET 8.27202 -0.0477905 -0.4584
                CHANNELS 3 Zrotation Xrotation Yrotation
                JOINT lPinky2
                {
                  OFFSET 1.82734 -0.647385 -0.700984
                  CHANNELS 3 Zrotation Xrotation Yrotation
                  End Site
                  {
                    OFFSET 1.69225 -0.51767 -0.607171
                  }
                }
              }
            }
          }
        }
      }
    }
  }
  JOINT rButtock
  {
    OFFSET -8.77824 4.35084 1.2192
    CHANNELS 3 Zrotation Xrotation Yrotation
    JOINT rThigh
    {
      OFFSET 0 -1.70687 -2.19456
      CHANNELS 3 Zrotation Xrotation Yrotation
      JOINT rShin
      {
        OFFSET 0 -36.8199 0.73152
        CHANNELS 3 Zrotation Xrotation Yrotation
        JOINT rFoot
        {
          OFFSET 0.73152 -45.1104 -5.12064
          CHANNELS 3 Zrotation Xrotation Yrotation
          End Site
          {
            OFFSET -1.1221 -3.69964 12.103
          }
        }
      }
    }
  }
  JOINT lButtock
  {
    OFFSET 8.77824 4.35084 1.2192
    CHANNELS 3 Zrotation Xrotation Yrotation
    JOINT lThigh
    {
      OFFSET 0 -1.70687 -2.19456
      CHANNELS 3 Zrotation Xrotation Yrotation
      JOINT lShin
      {
        OFFSET 0 -36.8199 0.73152
        CHANNELS 3 Zrotation Xrotation Yrotation
        JOINT lFoot
        {
          OFFSET -0.73152 -45.1104 -5.12064
          CHANNELS 3 Zrotation Xrotation Yrotation
          End Site
          {
            OFFSET 1.1221 -3.69964 12.103
          }
        }
      }
    }
  }
}
MOTION
Frames:	7
Frame Time:	0.00833333
270.597 83.8614 -41.4464 0.0 0.0 0.0 -0.257808 -0.00149941 -0.00737514 -0.071164 -0.00234961 -0.012329 -5.3391e-16 -1.59028e-15 7.14382e-17 -1.57164e-15 -6.36111e-15 2.12762e-16 -0.0 0.0 0.0 -0.0 0.0 0.0 -2.99521e-16 -1.35888e-18 1.98785e-16 -2.4123e-15 -1.42876e-16 1.78906e-15 -9.46712e-14 2.44505e-14 3.18055e-15 -1.07351e-12 -4.47017e-14 1.62208e-13 -2.53359e-12 -4.57104e-14 3.72125e-13 -4.3673e-12 -7.95139e-14 6.32135e-13 -2.52496e-12 -4.13472e-14 3.59403e-13 7.73091 5.47488 0.417314 -2.53177e-12 -4.49253e-14 3.68944e-13 2.90554 0.965183 0.102902 -2.52043e-12 -4.51241e-14 3.68944e-13 10.2786 0.731801 0.0259123 -2.53172e-12 -4.65156e-14 3.78486e-13 2.22167 -0.733487 -0.20892 -1.97458e-16 -1.35888e-18 -9.93923e-17 -8.71925e-15 6.21202e-17 -1.98785e-16 -9.33791e-14 -3.22031e-14 3.18055e-14 -1.07556e-12 8.77137e-15 1.52667e-13 -2.53312e-12 -5.26174e-14 3.72125e-13 -4.37167e-12 -9.22361e-14 6.41677e-13 -2.54007e-12 -5.00937e-14 3.78486e-13 -7.73091 5.47488 -0.417314 -2.53217e-12 -5.2181e-14 3.72125e-13 -2.90554 0.965183 -0.102902 -2.54186e-12 -5.2181e-14 3.70535e-13 -10.2786 0.731801 -0.0259123 -2.53053e-12 -5.12864e-14 3.62583e-13 -2.22167 -0.733487 0.20892 -2.03217e-16 0.0 -3.88251e-19 0.288574 -2.74965 -0.0315113 -0.00677235 -0.571702 -0.0593215 -0.483494 3.32101 0.122375 2.03217e-16 0.0 3.88251e-19 -0.681361 -3.75931 0.0561634 0.00387408 1.25718 0.0320688 0.487118 2.50184 -0.106252
265.004 80.9971 -46.1736 143.649 -86.2706 -137.47 -2.80602 2.8293 -2.06481 0.259241 1.75159 -0.723343 0.857066 3.29366 0.96717 0.652532 -5.27723 1.90867 -0.0 0.0 0.0 -0.0 0.0 0.0 -2.82494e-14 2.26124e-13 -2.03494e-14 19.1313 12.3439 -0.222797 -4.4685 -2.08199 6.92297 0.00711554 -1.88141 -0.263909 2.81948e-10 1.00402e-10 -9.40136e-11 4.8742e-10 1.73074e-10 -1.61516e-10 2.81958e-10 1.00407e-10 -9.40275e-11 7.73091 5.47488 0.417314 2.8195e-10 1.00403e-10 -9.40159e-11 2.90554 0.965183 0.102902 2.81961e-10 1.00404e-10 -9.40198e-11 10.2786 0.731801 0.0259123 2.8195e-10 1.004e-10 -9.40075e-11 2.22167 -0.733487 -0.20892 -2.82049e-14 2.2612e-13 -2.06523e-14 -18.0668 13.4999 -6.00926 16.5891 -14.0009 -14.9145 -0.0639144 -5.61308 0.775259 6.25133e-12 2.80935e-10 -2.47395e-10 1.43248e-11 4.86362e-10 -4.26735e-10 6.24391e-12 2.80936e-10 -2.47392e-10 -7.73091 5.47488 -0.417314 6.2557e-12 2.80937e-10 -2.47401e-10 -2.90554 0.965183 -0.102902 6.24423e-12 2.80933e-10 -2.47398e-10 -10.2786 0.731801 -0.0259123 6.25467e-12 2.80935e-10 -2.47406e-10 -2.22167 -0.733487 0.20892 -2.03217e-16 0.0 -3.88251e-19 -0.893756 -16.5057 1.79006 0.0654423 18.1219 0.211662 -0.628836 -1.14731 -1.30617 2.03217e-16 0.0 3.88251e-19 -2.97326 -4.21188 4.13162 -0.107711 8.26056 -0.23785 0.925469 -5.35287 2.77769
264.564 80.9029 -46.0424 141.354 -86.0931 -135.012 -5.26984 5.80812 -4.24159 0.655217 3.60077 -1.47274 1.64184 6.76746 1.99596 1.72804 -10.8274 3.97135 -0.0 0.0 0.0 -0.0 0.0 0.0 -6.00481e-14 4.81573e-13 -4.26611e-14 39.4948 25.3804 -0.434803 -8.66522 -4.19296 14.2953 -0.00434676 -3.89268 -0.54701 5.75903e-10 1.9133e-10 -1.60865e-10 9.95511e-10 3.29705e-10 -2.7597e-10 5.75914e-10 1.91335e-10 -1.6088e-10 7.73091 5.47488 0.417314 5.75904e-10 1.9133e-10 -1.60866e-10 2.90554 0.965183 0.102902 5.75915e-10 1.91333e-10 -1.60874e-10 10.2786 0.731801 0.0259123 5.75904e-10 1.91327e-10 -1.60859e-10 2.22167 -0.733487 -0.20892 -6.00652e-14 4.81565e-13 -4.29717e-14 -33.844 27.2603 -13.472 25.7685 -25.3773 -33.3144 0.0367417 -11.5382 1.61921 1.58411e-11 5.52875e-10 -4.8937e-10 3.42525e-11 9.57034e-10 -8.44021e-10 1.58332e-11 5.52873e-10 -4.89372e-10 -7.73091 5.47488 -0.417314 1.58493e-11 5.52879e-10 -4.89383e-10 -2.90554 0.965183 -0.102902 1.58357e-11 5.52869e-10 -4.89374e-10 -10.2786 0.731801 -0.0259123 1.58452e-11 5.52871e-10 -4.89382e-10 -2.22167 -0.733487 0.20892 -2.03217e-16 0.0 -3.88251e-19 -1.04433 -30.9716 4.15093 -0.0945354 37.9013 0.603974 -1.02423 -5.85135 -2.82595 2.03217e-16 0.0 3.88251e-19 -5.31654 -4.69849 8.44372 -0.151147 15.6929 -0.537464 2.26775 -13.5981 5.96664
264.102 80.813 -45.9383 140.505 -85.9522 -134.055 -7.28816 8.44678 -6.24008 1.05108 5.2562 -2.15342 2.2335 9.86964 2.94027 3.04543 -15.76 5.92523 -0.0 0.0 0.0 -0.0 0.0 0.0 -8.41492e-14 6.78373e-13 -6.14458e-14 57.7437 37.0293 -0.817893 -11.9262 -5.88201 20.8701 -0.0308627 -5.64375 -0.795154 8.50912e-10 3.01298e-10 -2.82785e-10 1.47099e-09 5.19381e-10 -4.85813e-10 8.50925e-10 3.01302e-10 -2.82801e-10 7.73091 5.47488 0.417314 8.50913e-10 3.01298e-10 -2.82786e-10 2.90554 0.965183 0.102902 8.50925e-10 3.01302e-10 -2.82797e-10 10.2786 0.731801 0.0259123 8.50914e-10 3.01294e-10 -2.82779e-10 2.22167 -0.733487 -0.20892 -8.42199e-14 6.78363e-13 -6.1758e-14 -43.8931 38.4632 -22.621 27.816 -29.9608 -52.4522 0.281157 -16.8266 2.41822 2.38202e-11 8.42911e-10 -7.42929e-10 5.17177e-11 1.45927e-09 -1.28149e-09 2.38119e-11 8.42907e-10 -7.42934e-10 -7.73091 5.47488 -0.417314 2.38314e-11 8.42917e-10 -7.42947e-10 -2.90554 0.965183 -0.102902 2.38164e-11 8.42903e-10 -7.42935e-10 -10.2786 0.731801 -0.0259123 2.38251e-11 8.42906e-10 -7.42943e-10 -2.22167 -0.733487 0.20892 -2.03217e-16 0.0 -3.88251e-19 0.232656 -43.8122 7.2316 -0.644735 55.5029 1.27509 -1.59478 -10.058 -4.22715 2.03217e-16 0.0 3.88251e-19 -7.36617 -5.03228 12.2974 -0.119422 22.2654 -0.832332 4.29799 -20.8382 9.10944
263.535 80.7404 -45.8398 137.698 -85.9408 -131.242 -8.62015 10.2755 -7.73646 1.35586 6.43024 -2.65487 2.5789 12.0533 3.63719 4.20033 -19.2151 7.4216 -0.0 0.0 0.0 -0.0 0.0 0.0 -8.90063e-14 7.28551e-13 -7.14134e-14 70.6222 45.207 -1.59734 -13.8992 -6.8734 25.3514 -0.0561219 -6.7448 -0.952367 1.07856e-09 4.58865e-10 -5.4238e-10 1.86496e-09 7.91669e-10 -9.34128e-10 1.07857e-09 4.58869e-10 -5.42396e-10 7.73091 5.47488 0.417314 1.07856e-09 4.58864e-10 -5.4238e-10 2.90554 0.965183 0.102902 1.07857e-09 4.58869e-10 -5.42393e-10 10.2786 0.731801 0.0259123 1.07856e-09 4.5886e-10 -5.42374e-10 2.22167 -0.733487 -0.20892 -8.91106e-14 7.2854e-13 -7.17116e-14 -47.3749 45.0511 -31.6656 27.7389 -29.2333 -66.0265 0.54676 -20.535 3.01768 2.77726e-11 1.17819e-09 -1.02545e-09 6.30267e-11 2.04042e-09 -1.7694e-09 2.77639e-11 1.17819e-09 -1.02545e-09 -7.73091 5.47488 -0.417314 2.77849e-11 1.1782e-09 -1.02547e-09 -2.90554 0.965183 -0.102902 2.77699e-11 1.17818e-09 -1.02545e-09 -10.2786 0.731801 -0.0259123 2.77782e-11 1.17819e-09 -1.02546e-09 -2.22167 -0.733487 0.20892 -2.03217e-16 0.0 -3.88251e-19 2.52753 -52.7644 10.6054 -1.67717 67.6643 2.35044 -2.13114 -13.0471 -5.263 2.03217e-16 0.0 3.88251e-19 -8.83925 -5.05567 14.9915 -0.0545164 26.6899 -1.0634 6.24707 -25.782 11.5777
263.008 80.6492 -45.7372 135.531 -85.8723 -129.023 -9.18911 10.9988 -8.48849 1.49269 6.93095 -2.89961 2.68784 12.9626 3.96285 4.7597 -20.6496 8.14277 -0.0 0.0 0.0 -0.0 0.0 0.0 -6.67151e-14 5.67665e-13 -7.072e-14 75.8796 48.5299 -2.86038 -14.4876 -7.11962 26.819 -0.062389 -6.9126 -0.976554 1.3005e-09 7.3157e-10 -1.08343e-09 2.24973e-09 1.26343e-09 -1.86962e-09 1.30051e-09 7.31571e-10 -1.08344e-09 7.73091 5.47488 0.417314 1.3005e-09 7.31567e-10 -1.08343e-09 2.90554 0.965183 0.102902 1.30051e-09 7.31572e-10 -1.08344e-09 10.2786 0.731801 0.0259123 1.3005e-09 7.31564e-10 -1.08342e-09 2.22167 -0.733487 -0.20892 -6.68236e-14 5.67656e-13 -7.09708e-14 -46.7218 46.9383 -36.8186 27.9025 -28.5325 -71.8681 0.677815 -22.0495 3.27401 2.65514e-11 1.67901e-09 -1.42449e-09 6.77845e-11 2.90914e-09 -2.4592e-09 2.65423e-11 1.679e-09 -1.42448e-09 -7.73091 5.47488 -0.417314 2.65618e-11 1.67901e-09 -1.4245e-09 -2.90554 0.965183 -0.102902 2.65495e-11 1.679e-09 -1.42449e-09 -10.2786 0.731801 -0.0259123 2.65581e-11 1.679e-09 -1.4245e-09 -2.22167 -0.733487 0.20892 -2.03217e-16 0.0 -3.88251e-19 4.06637 -56.4786 12.6143 -2.45801 72.2109 3.14159 -2.40209 -14.3534 -5.73388 2.03217e-16 0.0 3.88251e-19 -9.56973 -4.68572 16.069 -0.0237662 28.1051 -1.16515 7.15869 -27.6847 12.6516
262.462 80.5553 -45.6372 133.199 -85.8227 -126.655 -9.26273 10.9422 -8.69656 1.49907 6.95146 -2.95935 2.65554 12.9638 4.01513 4.79539 -20.657 8.26594 -0.0 0.0 0.0 -0.0 0.0 0.0 -2.50421e-14 2.56294e-13 -6.23314e-14 75.5135 48.3745 -4.32858 -14.1683 -6.89329 26.1237 -0.0530137 -6.41495 -0.905534 1.51548e-09 1.08421e-09 -1.82128e-09 2.62295e-09 1.87368e-09 -3.14579e-09 1.51549e-09 1.08421e-09 -1.82129e-09 7.73091 5.47488 0.417314 1.51548e-09 1.0842e-09 -1.82128e-09 2.90554 0.965183 0.102902 1.51549e-09 1.08421e-09 -1.82129e-09 10.2786 0.731801 0.0259123 1.51548e-09 1.0842e-09 -1.82127e-09 2.22167 -0.733487 -0.20892 -2.5134e-14 2.56291e-13 -6.25116e-14 -44.6673 46.1903 -37.9727 28.0786 -29.7704 -73.2402 0.670146 -21.9993 3.26461 2.16128e-11 2.2932e-09 -1.90313e-09 6.77644e-11 3.97482e-09 -3.28696e-09 2.16032e-11 2.29319e-09 -1.90312e-09 -7.73091 5.47488 -0.417314 2.16191e-11 2.29319e-09 -1.90314e-09 -2.90554 0.965183 -0.102902 2.16113e-11 2.2932e-09 -1.90313e-09 -10.2786 0.731801 -0.0259123 2.16208e-11 2.2932e-09 -1.90314e-09 -2.22167 -0.733487 0.20892 -2.03217e-16 0.0 -3.88251e-19 4.08951 -56.547 12.7645 -2.28401 71.3268 2.97155 -2.42685 -14.4641 -5.78191 2.03217e-16 0.0 3.88251e-19 -9.77071 -4.04091 15.993 -0.0380165 27.3713 -1.1626 7.08301 -27.4705 12.5857
